<?xml version="1.0" encoding="iso-8859-1"?>
<!-- Generator: Adobe Illustrator 19.0.0, SVG Export Plug-In . SVG Version: 6.00 Build 0)  -->
<svg xmlns="http://www.w3.org/2000/svg" xmlns:xlink="http://www.w3.org/1999/xlink" version="1.1" id="Capa_1" x="0px" y="0px" viewBox="0 0 512 512" style="enable-background:new 0 0 512 512;" xml:space="preserve" width="512px" height="512px">
<g>
	<g>
		<path d="M437.02,74.98C388.667,26.629,324.38,0,256,0S123.333,26.629,74.98,74.98C26.629,123.333,0,187.62,0,256    s26.629,132.667,74.98,181.02C123.333,485.371,187.62,512,256,512s132.667-26.629,181.02-74.98    C485.371,388.667,512,324.38,512,256S485.371,123.333,437.02,74.98z M256,482c-60.367,0-117.12-23.508-159.806-66.194    C53.508,373.12,30,316.367,30,256c0-55.339,19.768-107.633,55.943-148.845l66.293,66.293H106.24v210.599h256.594l42.011,42.011    C363.632,462.232,311.339,482,256,482z M256.001,209.548c-7.59,0-14.892,1.243-21.733,3.506l-35.383-35.383l8.663-19.717h96.906    l19.99,45.495h51.317v150.598h-0.001h-0.5l-53.388-53.388c2.263-6.841,3.506-14.143,3.506-21.734    C325.378,240.67,294.255,209.548,256.001,209.548z M261.102,239.889c17.638,2.294,31.64,16.295,33.934,33.934L261.102,239.889z     M284.666,305.879c-7.187,7.639-17.376,12.422-28.667,12.422c-21.713,0-39.377-17.664-39.377-39.377    c0.001-11.29,4.784-21.479,12.423-28.666L284.666,305.879z M207.842,229.055c-13.069,12.624-21.22,30.308-21.22,49.87    c0,38.255,31.123,69.377,69.377,69.377c19.562,0,37.246-8.151,49.87-21.219l26.964,26.964H136.24V203.448h45.995L207.842,229.055z     M426.057,404.845l-20.798-20.798h0.5V173.448h-61.73l-19.99-45.495H187.96l-11.842,26.952l-68.962-68.963    C148.368,49.768,200.661,30,256,30c60.367,0,117.12,23.508,159.806,66.194C458.492,138.88,482,195.633,482,256    C482,311.339,462.232,363.633,426.057,404.845z" fill="#d6d6d6"/>
	</g>
</g>
<g>
</g>
<g>
</g>
<g>
</g>
<g>
</g>
<g>
</g>
<g>
</g>
<g>
</g>
<g>
</g>
<g>
</g>
<g>
</g>
<g>
</g>
<g>
</g>
<g>
</g>
<g>
</g>
<g>
</g>
</svg>
